<?xml version="1.0" encoding="UTF-8" standalone="no"?><svg xmlns="http://www.w3.org/2000/svg" xmlns:xlink="http://www.w3.org/1999/xlink" contentStyleType="text/css" height="365px" preserveAspectRatio="none" style="width:713px;height:365px;background:#FFFFFF;" version="1.1" viewBox="0 0 713 365" width="713px" zoomAndPan="magnify"><defs/><g><rect fill="none" height="26.2969" id="_title" style="stroke:none;stroke-width:1.0;" width="336" x="181.5" y="5"/><text fill="#000000" font-family="sans-serif" font-size="14" font-weight="bold" lengthAdjust="spacing" textLength="326" x="186.5" y="22.9951">Pizaa Store Relationships - Class Diagram</text><!--MD5=[7df411682143eb091f477b8182caaa86]
class PizzaDecorator--><g id="elem_PizzaDecorator"><rect codeLine="4" fill="#F1F1F1" height="64.2969" id="PizzaDecorator" rx="2.5" ry="2.5" style="stroke:#181818;stroke-width:0.5;" width="137" x="325.5" y="294.2969"/><ellipse cx="340.5" cy="310.2969" fill="#A9DCDF" rx="11" ry="11" style="stroke:#181818;stroke-width:1.0;"/><path d="M340.6094,305.6406 L339.4531,310.7188 L341.7813,310.7188 L340.6094,305.6406 Z M339.125,303.4063 L342.1094,303.4063 L345.4688,315.7969 L343.0156,315.7969 L342.25,312.7344 L338.9688,312.7344 L338.2188,315.7969 L335.7813,315.7969 L339.125,303.4063 Z " fill="#000000"/><text fill="#000000" font-family="sans-serif" font-size="14" font-style="italic" lengthAdjust="spacing" textLength="105" x="354.5" y="315.1436">PizzaDecorator</text><line style="stroke:#181818;stroke-width:0.5;" x1="326.5" x2="461.5" y1="326.2969" y2="326.2969"/><line style="stroke:#181818;stroke-width:0.5;" x1="326.5" x2="461.5" y1="334.2969" y2="334.2969"/><ellipse cx="336.5" cy="347.9453" fill="#84BE84" rx="3" ry="3" style="stroke:#038048;stroke-width:1.0;"/><text fill="#000000" font-family="sans-serif" font-size="14" lengthAdjust="spacing" textLength="99" x="345.5" y="351.292">cost():number</text></g><!--MD5=[56892c6b98c89144d3bd5a37e0c1daeb]
class ToppingDecorator--><g id="elem_ToppingDecorator"><rect codeLine="8" fill="#F1F1F1" height="64.2969" id="ToppingDecorator" rx="2.5" ry="2.5" style="stroke:#181818;stroke-width:0.5;" width="158" x="106" y="153.2969"/><ellipse cx="121" cy="169.2969" fill="#A9DCDF" rx="11" ry="11" style="stroke:#181818;stroke-width:1.0;"/><path d="M121.1094,164.6406 L119.9531,169.7188 L122.2813,169.7188 L121.1094,164.6406 Z M119.625,162.4063 L122.6094,162.4063 L125.9688,174.7969 L123.5156,174.7969 L122.75,171.7344 L119.4688,171.7344 L118.7188,174.7969 L116.2813,174.7969 L119.625,162.4063 Z " fill="#000000"/><text fill="#000000" font-family="sans-serif" font-size="14" font-style="italic" lengthAdjust="spacing" textLength="126" x="135" y="174.1436">ToppingDecorator</text><line style="stroke:#181818;stroke-width:0.5;" x1="107" x2="263" y1="185.2969" y2="185.2969"/><line style="stroke:#181818;stroke-width:0.5;" x1="107" x2="263" y1="193.2969" y2="193.2969"/><ellipse cx="117" cy="206.9453" fill="#84BE84" rx="3" ry="3" style="stroke:#038048;stroke-width:1.0;"/><text fill="#000000" font-family="sans-serif" font-size="14" lengthAdjust="spacing" textLength="99" x="126" y="210.292">cost():number</text></g><!--MD5=[3908618e5caf4fcbfe24acc61ecd7098]
class Margerita--><g id="elem_Margerita"><rect codeLine="12" fill="#F1F1F1" height="48" id="Margerita" rx="2.5" ry="2.5" style="stroke:#181818;stroke-width:0.5;" width="96" x="610" y="161.2969"/><ellipse cx="625" cy="177.2969" fill="#ADD1B2" rx="11" ry="11" style="stroke:#181818;stroke-width:1.0;"/><path d="M627.9688,182.9375 Q627.3906,183.2344 626.75,183.375 Q626.1094,183.5313 625.4063,183.5313 Q622.9063,183.5313 621.5781,181.8906 Q620.2656,180.2344 620.2656,177.1094 Q620.2656,173.9844 621.5781,172.3281 Q622.9063,170.6719 625.4063,170.6719 Q626.1094,170.6719 626.75,170.8281 Q627.4063,170.9844 627.9688,171.2813 L627.9688,174 Q627.3438,173.4219 626.75,173.1563 Q626.1563,172.875 625.5313,172.875 Q624.1875,172.875 623.5,173.9531 Q622.8125,175.0156 622.8125,177.1094 Q622.8125,179.2031 623.5,180.2813 Q624.1875,181.3438 625.5313,181.3438 Q626.1563,181.3438 626.75,181.0781 Q627.3438,180.7969 627.9688,180.2188 L627.9688,182.9375 Z " fill="#000000"/><text fill="#000000" font-family="sans-serif" font-size="14" lengthAdjust="spacing" textLength="64" x="639" y="182.1436">Margerita</text><line style="stroke:#181818;stroke-width:0.5;" x1="611" x2="705" y1="193.2969" y2="193.2969"/><line style="stroke:#181818;stroke-width:0.5;" x1="611" x2="705" y1="201.2969" y2="201.2969"/></g><!--MD5=[2a02992baeb6e5aab129d7c3926a15a4]
class Vegdelight--><g id="elem_Vegdelight"><rect codeLine="13" fill="#F1F1F1" height="48" id="Vegdelight" rx="2.5" ry="2.5" style="stroke:#181818;stroke-width:0.5;" width="106" x="469" y="161.2969"/><ellipse cx="484" cy="177.2969" fill="#ADD1B2" rx="11" ry="11" style="stroke:#181818;stroke-width:1.0;"/><path d="M486.9688,182.9375 Q486.3906,183.2344 485.75,183.375 Q485.1094,183.5313 484.4063,183.5313 Q481.9063,183.5313 480.5781,181.8906 Q479.2656,180.2344 479.2656,177.1094 Q479.2656,173.9844 480.5781,172.3281 Q481.9063,170.6719 484.4063,170.6719 Q485.1094,170.6719 485.75,170.8281 Q486.4063,170.9844 486.9688,171.2813 L486.9688,174 Q486.3438,173.4219 485.75,173.1563 Q485.1563,172.875 484.5313,172.875 Q483.1875,172.875 482.5,173.9531 Q481.8125,175.0156 481.8125,177.1094 Q481.8125,179.2031 482.5,180.2813 Q483.1875,181.3438 484.5313,181.3438 Q485.1563,181.3438 485.75,181.0781 Q486.3438,180.7969 486.9688,180.2188 L486.9688,182.9375 Z " fill="#000000"/><text fill="#000000" font-family="sans-serif" font-size="14" lengthAdjust="spacing" textLength="74" x="498" y="182.1436">Vegdelight</text><line style="stroke:#181818;stroke-width:0.5;" x1="470" x2="574" y1="193.2969" y2="193.2969"/><line style="stroke:#181818;stroke-width:0.5;" x1="470" x2="574" y1="201.2969" y2="201.2969"/></g><!--MD5=[05fe30d7fb67a11fd5fc741b4325a942]
class FarmHouse--><g id="elem_FarmHouse"><rect codeLine="14" fill="#F1F1F1" height="48" id="FarmHouse" rx="2.5" ry="2.5" style="stroke:#181818;stroke-width:0.5;" width="111" x="322.5" y="161.2969"/><ellipse cx="337.5" cy="177.2969" fill="#ADD1B2" rx="11" ry="11" style="stroke:#181818;stroke-width:1.0;"/><path d="M340.4688,182.9375 Q339.8906,183.2344 339.25,183.375 Q338.6094,183.5313 337.9063,183.5313 Q335.4063,183.5313 334.0781,181.8906 Q332.7656,180.2344 332.7656,177.1094 Q332.7656,173.9844 334.0781,172.3281 Q335.4063,170.6719 337.9063,170.6719 Q338.6094,170.6719 339.25,170.8281 Q339.9063,170.9844 340.4688,171.2813 L340.4688,174 Q339.8438,173.4219 339.25,173.1563 Q338.6563,172.875 338.0313,172.875 Q336.6875,172.875 336,173.9531 Q335.3125,175.0156 335.3125,177.1094 Q335.3125,179.2031 336,180.2813 Q336.6875,181.3438 338.0313,181.3438 Q338.6563,181.3438 339.25,181.0781 Q339.8438,180.7969 340.4688,180.2188 L340.4688,182.9375 Z " fill="#000000"/><text fill="#000000" font-family="sans-serif" font-size="14" lengthAdjust="spacing" textLength="79" x="351.5" y="182.1436">FarmHouse</text><line style="stroke:#181818;stroke-width:0.5;" x1="323.5" x2="432.5" y1="193.2969" y2="193.2969"/><line style="stroke:#181818;stroke-width:0.5;" x1="323.5" x2="432.5" y1="201.2969" y2="201.2969"/></g><!--MD5=[cf50a59b76e21414abc3cbfed33282d8]
class ExtraCheese--><g id="elem_ExtraCheese"><rect codeLine="15" fill="#F1F1F1" height="48" id="ExtraCheese" rx="2.5" ry="2.5" style="stroke:#181818;stroke-width:0.5;" width="120" x="273" y="44.2969"/><ellipse cx="288" cy="60.2969" fill="#ADD1B2" rx="11" ry="11" style="stroke:#181818;stroke-width:1.0;"/><path d="M290.9688,65.9375 Q290.3906,66.2344 289.75,66.375 Q289.1094,66.5313 288.4063,66.5313 Q285.9063,66.5313 284.5781,64.8906 Q283.2656,63.2344 283.2656,60.1094 Q283.2656,56.9844 284.5781,55.3281 Q285.9063,53.6719 288.4063,53.6719 Q289.1094,53.6719 289.75,53.8281 Q290.4063,53.9844 290.9688,54.2813 L290.9688,57 Q290.3438,56.4219 289.75,56.1563 Q289.1563,55.875 288.5313,55.875 Q287.1875,55.875 286.5,56.9531 Q285.8125,58.0156 285.8125,60.1094 Q285.8125,62.2031 286.5,63.2813 Q287.1875,64.3438 288.5313,64.3438 Q289.1563,64.3438 289.75,64.0781 Q290.3438,63.7969 290.9688,63.2188 L290.9688,65.9375 Z " fill="#000000"/><text fill="#000000" font-family="sans-serif" font-size="14" lengthAdjust="spacing" textLength="88" x="302" y="65.1436">ExtraCheese</text><line style="stroke:#181818;stroke-width:0.5;" x1="274" x2="392" y1="76.2969" y2="76.2969"/><line style="stroke:#181818;stroke-width:0.5;" x1="274" x2="392" y1="84.2969" y2="84.2969"/></g><!--MD5=[f5d3078b1863ab86c0fd34049cf8156b]
class Mushroom--><g id="elem_Mushroom"><rect codeLine="16" fill="#F1F1F1" height="48" id="Mushroom" rx="2.5" ry="2.5" style="stroke:#181818;stroke-width:0.5;" width="106" x="132" y="44.2969"/><ellipse cx="147" cy="60.2969" fill="#ADD1B2" rx="11" ry="11" style="stroke:#181818;stroke-width:1.0;"/><path d="M149.9688,65.9375 Q149.3906,66.2344 148.75,66.375 Q148.1094,66.5313 147.4063,66.5313 Q144.9063,66.5313 143.5781,64.8906 Q142.2656,63.2344 142.2656,60.1094 Q142.2656,56.9844 143.5781,55.3281 Q144.9063,53.6719 147.4063,53.6719 Q148.1094,53.6719 148.75,53.8281 Q149.4063,53.9844 149.9688,54.2813 L149.9688,57 Q149.3438,56.4219 148.75,56.1563 Q148.1563,55.875 147.5313,55.875 Q146.1875,55.875 145.5,56.9531 Q144.8125,58.0156 144.8125,60.1094 Q144.8125,62.2031 145.5,63.2813 Q146.1875,64.3438 147.5313,64.3438 Q148.1563,64.3438 148.75,64.0781 Q149.3438,63.7969 149.9688,63.2188 L149.9688,65.9375 Z " fill="#000000"/><text fill="#000000" font-family="sans-serif" font-size="14" lengthAdjust="spacing" textLength="74" x="161" y="65.1436">Mushroom</text><line style="stroke:#181818;stroke-width:0.5;" x1="133" x2="237" y1="76.2969" y2="76.2969"/><line style="stroke:#181818;stroke-width:0.5;" x1="133" x2="237" y1="84.2969" y2="84.2969"/></g><!--MD5=[56a07450c02414899675f848a4c26c85]
class Jalapeno--><g id="elem_Jalapeno"><rect codeLine="17" fill="#F1F1F1" height="48" id="Jalapeno" rx="2.5" ry="2.5" style="stroke:#181818;stroke-width:0.5;" width="90" x="7" y="44.2969"/><ellipse cx="22" cy="60.2969" fill="#ADD1B2" rx="11" ry="11" style="stroke:#181818;stroke-width:1.0;"/><path d="M24.9688,65.9375 Q24.3906,66.2344 23.75,66.375 Q23.1094,66.5313 22.4063,66.5313 Q19.9063,66.5313 18.5781,64.8906 Q17.2656,63.2344 17.2656,60.1094 Q17.2656,56.9844 18.5781,55.3281 Q19.9063,53.6719 22.4063,53.6719 Q23.1094,53.6719 23.75,53.8281 Q24.4063,53.9844 24.9688,54.2813 L24.9688,57 Q24.3438,56.4219 23.75,56.1563 Q23.1563,55.875 22.5313,55.875 Q21.1875,55.875 20.5,56.9531 Q19.8125,58.0156 19.8125,60.1094 Q19.8125,62.2031 20.5,63.2813 Q21.1875,64.3438 22.5313,64.3438 Q23.1563,64.3438 23.75,64.0781 Q24.3438,63.7969 24.9688,63.2188 L24.9688,65.9375 Z " fill="#000000"/><text fill="#000000" font-family="sans-serif" font-size="14" lengthAdjust="spacing" textLength="58" x="36" y="65.1436">Jalapeno</text><line style="stroke:#181818;stroke-width:0.5;" x1="8" x2="96" y1="76.2969" y2="76.2969"/><line style="stroke:#181818;stroke-width:0.5;" x1="8" x2="96" y1="84.2969" y2="84.2969"/></g><!--MD5=[620bd74bf8b96a9ec0a7bbcbb2e505da]
link Margerita to PizzaDecorator--><g id="link_Margerita_PizzaDecorator"><path codeLine="20" d="M633.72,209.5969 C615.03,226.5569 587.91,249.1069 561,264.2969 C534.42,279.2969 503.47,291.8069 475.48,301.5169 " fill="none" id="Margerita-to-PizzaDecorator" style="stroke:#181818;stroke-width:1.0;"/><polygon fill="#181818" points="462.86,305.7769,469.8242,307.6476,474.2296,301.9386,467.2654,300.0679,462.86,305.7769" style="stroke:#181818;stroke-width:1.0;"/><text fill="#000000" font-family="sans-serif" font-size="13" lengthAdjust="spacing" textLength="71" x="587" y="260.3638">Inheritance</text><text fill="#000000" font-family="sans-serif" font-size="13" lengthAdjust="spacing" textLength="8" x="618.8268" y="229.4312">1</text><text fill="#000000" font-family="sans-serif" font-size="13" lengthAdjust="spacing" textLength="8" x="470.3737" y="299.9457">1</text></g><!--MD5=[3e7ad6322aed2b8dfad1e5389ecc6a9a]
link Vegdelight to PizzaDecorator--><g id="link_Vegdelight_PizzaDecorator"><path codeLine="21" d="M508.04,209.3169 C497.69,225.5069 482.72,247.2369 467,264.2969 C460.31,271.5569 452.76,278.7569 445.12,285.5269 " fill="none" id="Vegdelight-to-PizzaDecorator" style="stroke:#181818;stroke-width:1.0;"/><polygon fill="#181818" points="435.09,294.1469,442.2482,293.2749,444.1964,286.332,437.0382,287.2039,435.09,294.1469" style="stroke:#181818;stroke-width:1.0;"/><text fill="#000000" font-family="sans-serif" font-size="13" lengthAdjust="spacing" textLength="71" x="481" y="260.3638">Inheritance</text><text fill="#000000" font-family="sans-serif" font-size="13" lengthAdjust="spacing" textLength="8" x="495.4378" y="229.4778">1</text><text fill="#000000" font-family="sans-serif" font-size="13" lengthAdjust="spacing" textLength="8" x="434.7398" y="283.019">1</text></g><!--MD5=[b2799a576ec561d3bf6911aafdda6766]
link FarmHouse to PizzaDecorator--><g id="link_FarmHouse_PizzaDecorator"><path codeLine="22" d="M380.68,209.5669 C382.92,229.0369 386.18,257.3669 388.92,281.1269 " fill="none" id="FarmHouse-to-PizzaDecorator" style="stroke:#181818;stroke-width:1.0;"/><polygon fill="#181818" points="390.41,294.1269,393.691,287.7054,389.0255,282.207,385.7445,288.6284,390.41,294.1269" style="stroke:#181818;stroke-width:1.0;"/><text fill="#000000" font-family="sans-serif" font-size="13" lengthAdjust="spacing" textLength="71" x="387" y="260.3638">Inheritance</text><text fill="#000000" font-family="sans-serif" font-size="13" lengthAdjust="spacing" textLength="8" x="372.3583" y="229.3939">1</text><text fill="#000000" font-family="sans-serif" font-size="13" lengthAdjust="spacing" textLength="8" x="380.8446" y="282.9949">1</text></g><!--MD5=[d784cecae211bb24fba419206c8ceedf]
link ToppingDecorator to PizzaDecorator--><g id="link_ToppingDecorator_PizzaDecorator"><path codeLine="23" d="M161.32,217.4369 C152.75,232.7169 147.47,250.6969 158,264.2969 C177.04,288.8869 252,305.3469 312.4,314.9069 " fill="none" id="ToppingDecorator-to-PizzaDecorator" style="stroke:#181818;stroke-width:1.0;"/><polygon fill="#181818" points="325.43,316.8969,320.1056,312.0337,313.5686,315.0781,318.8931,319.9413,325.43,316.8969" style="stroke:#181818;stroke-width:1.0;"/><text fill="#000000" font-family="sans-serif" font-size="13" lengthAdjust="spacing" textLength="71" x="159" y="260.3638">Inheritance</text><text fill="#000000" font-family="sans-serif" font-size="13" lengthAdjust="spacing" textLength="8" x="147.611" y="237.6626">1</text><text fill="#000000" font-family="sans-serif" font-size="13" lengthAdjust="spacing" textLength="8" x="309.4927" y="312.1064">1</text></g><!--MD5=[09d373be37e745e69ca34d1ad672104a]
reverse link PizzaDecorator to ToppingDecorator--><g id="link_PizzaDecorator_ToppingDecorator"><path codeLine="24" d="M332.45,287.1969 C320.62,279.7069 308.38,271.8269 297,264.2969 C274.18,249.1869 249.15,231.8369 228.56,217.3369 " fill="none" id="PizzaDecorator-backto-ToppingDecorator" style="stroke:#181818;stroke-width:1.0;"/><polygon fill="none" points="343.62,294.2369,340.6811,287.6518,333.4723,287.8319,336.4111,294.417,343.62,294.2369" style="stroke:#181818;stroke-width:1.0;"/><text fill="#000000" font-family="sans-serif" font-size="13" lengthAdjust="spacing" textLength="78" x="298" y="260.3638">Aggregation</text></g><!--MD5=[7cc9761a43a087b6b538a090305e33e1]
link ExtraCheese to ToppingDecorator--><g id="link_ExtraCheese_ToppingDecorator"><path codeLine="25" d="M303.05,92.5669 C283.65,107.6369 257.91,127.6469 235.41,145.1269 " fill="none" id="ExtraCheese-to-ToppingDecorator" style="stroke:#181818;stroke-width:1.0;"/><polygon fill="#181818" points="225.01,153.2069,232.202,152.682,234.4836,145.8414,227.2917,146.3663,225.01,153.2069" style="stroke:#181818;stroke-width:1.0;"/><text fill="#000000" font-family="sans-serif" font-size="13" lengthAdjust="spacing" textLength="8" x="286.7747" y="112.3939">1</text><text fill="#000000" font-family="sans-serif" font-size="13" lengthAdjust="spacing" textLength="8" x="224.4371" y="142.0914">1</text></g><!--MD5=[62e7f7993ef1f47c1e0e12cf36b70d8b]
link Mushroom to ToppingDecorator--><g id="link_Mushroom_ToppingDecorator"><path codeLine="26" d="M185,92.5669 C185,106.2069 185,123.8869 185,140.0769 " fill="none" id="Mushroom-to-ToppingDecorator" style="stroke:#181818;stroke-width:1.0;"/><polygon fill="#181818" points="185,153.2069,189,147.2069,185,141.2069,181,147.2069,185,153.2069" style="stroke:#181818;stroke-width:1.0;"/><text fill="#000000" font-family="sans-serif" font-size="13" lengthAdjust="spacing" textLength="8" x="176.025" y="112.3939">1</text><text fill="#000000" font-family="sans-serif" font-size="13" lengthAdjust="spacing" textLength="8" x="176.175" y="142.0914">1</text></g><!--MD5=[86f1d41d60d0344c833ce9257d3492a2]
link Jalapeno to ToppingDecorator--><g id="link_Jalapeno_ToppingDecorator"><path codeLine="27" d="M78.91,92.5669 C96.19,107.5069 119.06,127.2869 139.15,144.6469 " fill="none" id="Jalapeno-to-ToppingDecorator" style="stroke:#181818;stroke-width:1.0;"/><polygon fill="#181818" points="149.05,153.2069,147.1283,146.2566,139.9735,145.3573,141.8952,152.3076,149.05,153.2069" style="stroke:#181818;stroke-width:1.0;"/><text fill="#000000" font-family="sans-serif" font-size="13" lengthAdjust="spacing" textLength="8" x="76.4943" y="112.3939">1</text><text fill="#000000" font-family="sans-serif" font-size="13" lengthAdjust="spacing" textLength="8" x="132.8103" y="142.0914">1</text></g><!--MD5=[30f80c7bf34bbcec5223d350060d198b]
@startuml
title Pizaa Store Relationships - Class Diagram


abstract class PizzaDecorator {
  +cost():number
}

abstract class ToppingDecorator {
  +cost():number
}

class Margerita
class Vegdelight
class FarmHouse
class ExtraCheese
class Mushroom
Class Jalapeno


PizzaDecorator "1" *-up- "1" Margerita: Inheritance
PizzaDecorator "1" *-up- "1" Vegdelight: Inheritance
PizzaDecorator "1" *-up- "1" FarmHouse: Inheritance
PizzaDecorator "1" *-up- "1" ToppingDecorator: Inheritance
PizzaDecorator o- - ToppingDecorator:Aggregation
ToppingDecorator "1" *-up- "1" ExtraCheese
ToppingDecorator "1" *-up- "1" Mushroom
ToppingDecorator "1" *-up- "1" Jalapeno
@enduml

PlantUML version 1.2022.7(Mon Aug 22 17:01:30 UTC 2022)
(GPL source distribution)
Java Runtime: OpenJDK Runtime Environment
JVM: OpenJDK 64-Bit Server VM
Default Encoding: UTF-8
Language: en
Country: null
--></g></svg>